<?xml version="1.0" encoding="UTF-8" standalone="no"?>
<svg
   width="1000"
   height="600"
   viewBox="0 0 1000 600"
   version="1.1"
   id="svg25287"
   xmlns="http://www.w3.org/2000/svg"
   xmlns:svg="http://www.w3.org/2000/svg">
  <defs
     id="defs25220">
    <style
       id="style25218">
      .cls-1 {
        fill: #ff0;
      }

      .cls-1, .cls-2, .cls-3 {
        stroke-width: 0px;
      }

      .cls-2 {
        fill: red;
      }

      .cls-3 {
        fill: none;
      }
    </style>
  </defs>
  <path
     id="path1011"
     class="cls-2"
     d="M 0,0 H 1000 V 600 H 0 Z" />
  <path
     d="M 526.46525,180.75826 529.91154,114.33617 C 529.92991,114.03965 529.71691,113.76929 529.41333,113.72197 529.10309,113.67243 528.81325,113.87394 528.74533,114.17474 L 511.71312,178.19464 C 511.66099,178.40932 511.61942,178.61603 511.58695,178.82311 510.94307,182.91793 513.74069,186.75817 517.83549,187.40205 521.92919,188.04462 525.76998,185.24757 526.41274,181.15275 526.43483,181.02026 526.45153,180.88611 526.46525,180.75826 Z M 544.80099,186.36313 558.66116,121.31135 C 558.72629,121.01928 558.55854,120.71906 558.26611,120.62443 557.96792,120.52812 557.64915,120.68065 557.53503,120.96678 L 530.63688,181.50679 C 530.55115,181.71183 530.47805,181.90814 530.41218,182.10891 529.13259,186.0501 531.2906,190.2839 535.23234,191.56404 539.17406,192.84437 543.40822,190.68618 544.68743,186.74389 544.72936,186.61511 544.76721,186.48578 544.80099,186.36313 Z M 562.02527,194.78509 585.95268,132.72668 C 586.06308,132.45002 585.9447,132.1266 585.67082,131.98557 585.39137,131.84362 585.05275,131.94513 584.89484,132.2101 L 548.80155,187.76072 C 548.68484,187.94906 548.58167,188.13202 548.48593,188.32036 546.60198,192.01123 548.0662,196.53041 551.75705,198.41491 555.44885,200.30107 559.96877,198.83575 561.85381,195.14395 561.91487,195.02352 561.97276,194.90198 562.02527,194.78509 Z M 577.71166,205.79665 611.05299,148.24684 C 611.20496,147.98966 611.13872,147.65141 610.89045,147.47105 610.63698,147.28642 610.28666,147.33318 610.08829,147.57087 L 565.74915,196.78963 C 565.60405,196.95849 565.47416,197.12308 565.35058,197.29304 562.9111,200.6436 563.6511,205.33795 567.00165,207.77688 570.35257,210.21545 575.04655,209.47527 577.48603,206.12489 577.56545,206.0143 577.64171,205.9039 577.71166,205.79665 Z M 591.48648,219.11187 633.37871,167.4525 C 633.56964,167.22223 633.55666,166.87858 633.33826,166.66148 633.11745,166.43845 632.76341,166.43047 632.53202,166.63365 L 581.07205,208.35285 C 580.90264,208.49591 580.74862,208.63842 580.59981,208.78742 577.66899,211.71751 577.66899,216.47031 580.59981,219.39948 583.53009,222.33143 588.28177,222.33143 591.21205,219.39948 591.30815,219.30336 591.40076,219.20594 591.48648,219.11187 Z M 603.02276,234.4064 652.44497,189.89665 C 652.66857,189.69884 652.70902,189.35854 652.52866,189.10989 652.34403,188.85568 651.99649,188.79204 651.7356,188.95737 L 594.40896,222.15942 C 594.21949,222.27409 594.04545,222.39025 593.87456,222.51383 590.52401,224.95239 589.78438,229.64674 592.22295,232.99823 594.66242,236.34823 599.35565,237.08934 602.70676,234.64985 602.81605,234.56895 602.92293,234.48842 603.02276,234.4064 Z M 612.03031,251.32398 667.80629,215.09387 C 668.05882,214.93336 668.15289,214.60159 668.01299,214.32864 667.86993,214.04919 667.53593,213.93248 667.25241,214.0555 L 605.43924,237.87999 C 605.23364,237.96311 605.04308,238.05033 604.8553,238.14607 601.16406,240.03019 599.6991,244.55142 601.58379,248.24285 603.46883,251.93372 607.98856,253.39793 611.67943,251.51343 611.80041,251.45239 611.9188,251.38707 612.03031,251.32398 Z M 618.26623,269.45361 679.05068,242.45651 C 679.3242,242.33757 679.47004,242.02565 679.3743,241.73377 679.27744,241.43559 678.96662,241.26784 678.66733,241.34299 L 613.87322,255.13899 C 613.65818,255.19094 613.45574,255.24624 613.25534,255.31192 609.31361,256.5917 607.15542,260.82531 608.43575,264.76761 609.71497,268.70879 613.94856,270.86679 617.8903,269.58721 618.01963,269.54564 618.14581,269.50092 618.26623,269.45361 Z M 621.56779,288.34048 685.84531,271.24922 C 686.13422,271.17518 686.32609,270.89054 686.27821,270.58698 686.22978,270.27673 685.94849,270.06167 685.64121,270.08839 L 619.48403,273.51262 C 619.26248,273.52987 619.05465,273.55418 618.8459,273.58573 614.75164,274.22997 611.95405,278.07077 612.59774,282.16503 613.24106,286.2593 617.08128,289.05746 621.17608,288.41303 621.31006,288.39207 621.44217,288.36739 621.56779,288.34048 Z M 621.8877,307.49307 688.0382,300.58746 C 688.33583,300.55963 688.57,300.30765 688.57,300.00056 688.57,299.68641 688.32581,299.43035 688.01761,299.41086 L 622.13076,292.52251 C 621.90977,292.50414 621.69991,292.49468 621.48893,292.49468 617.34533,292.49468 613.98475,295.85582 613.98475,300.00056 613.98475,304.14418 617.34533,307.5042 621.48893,307.5042 621.62476,307.5042 621.75929,307.50049 621.8877,307.49307 Z M 619.24151,326.46586 685.66236,329.91142 C 685.95998,329.92998 686.23034,329.71696 686.27821,329.41339 686.3272,329.10352 686.12569,328.81275 685.82435,328.74428 L 621.80567,311.71203 C 621.58988,311.661 621.38372,311.61944 621.17608,311.58585 617.08128,310.94309 613.24106,313.74125 612.59774,317.83608 611.95405,321.92978 614.75164,325.76984 618.8459,326.41427 618.98006,326.43524 619.1131,326.45268 619.24151,326.46586 Z M 613.63721,344.80052 678.68829,358.66108 C 678.9798,358.72584 679.27947,358.5581 679.3743,358.26511 679.47152,357.9673 679.31788,357.64907 679.03175,357.53495 L 618.49242,330.63583 C 618.28739,330.55159 618.09106,330.47792 617.8903,330.41168 613.94856,329.13302 609.71497,331.29009 608.43575,335.23295 607.15542,339.17357 609.31361,343.40663 613.25534,344.68789 613.38468,344.72945 613.51363,344.7673 613.63721,344.80052 Z M 605.21453,362.02482 667.27244,385.95173 C 667.55022,386.0627 667.87253,385.94431 668.01299,385.67136 668.15568,385.39043 668.05456,385.05179 667.78903,384.89351 L 612.23851,348.80108 C 612.05035,348.68381 611.86777,348.58064 611.67943,348.48601 607.98856,346.60151 603.46883,348.06628 601.58379,351.75715 599.6991,355.44895 601.16406,359.96813 604.8553,361.85337 604.97628,361.91479 605.09781,361.97212 605.21453,362.02482 Z M 594.20317,377.71125 651.75341,411.05265 C 652.01003,411.20517 652.34775,411.13893 652.52922,410.8901 652.71328,410.63756 652.66652,410.28687 652.4292,410.08906 L 603.20905,365.74983 C 603.04187,365.6051 602.8771,365.47373 602.70676,365.35015 599.35565,362.91103 594.66242,363.65121 592.22351,367.00214 589.78438,370.3527 590.52457,375.04761 593.87492,377.48598 593.9844,377.56484 594.09536,377.64129 594.20317,377.71125 Z M 580.88797,391.48609 632.5478,433.37896 C 632.77751,433.56934 633.12153,433.5558 633.33826,433.33796 633.56074,433.11752 633.56928,432.76311 633.36517,432.53209 L 591.64698,381.07109 C 591.50336,380.90168 591.36179,380.74822 591.21205,380.59978 588.28177,377.66913 583.53009,377.66913 580.59981,380.59978 577.66899,383.53006 577.66899,388.28082 580.59981,391.21202 580.695,391.30833 580.79334,391.39925 580.88797,391.48609 Z M 565.59291,403.02295 610.10314,452.44415 C 610.30038,452.66887 610.64162,452.70932 610.89045,452.52896 611.14392,452.34377 611.20719,451.99604 611.04242,451.73572 L 577.84044,394.40839 C 577.72577,394.22024 577.60961,394.04507 577.48603,393.87566 575.04655,390.52362 570.35257,389.78455 567.00165,392.22293 563.6511,394.66204 562.9111,399.35528 565.35058,402.70695 565.43055,402.8168 565.51202,402.9235 565.59291,403.02295 Z M 548.67649,412.02941 584.90597,467.80771 C 585.06593,468.05952 585.39676,468.15322 585.67082,468.01331 585.95008,467.87081 586.0668,467.53737 585.9447,467.25272 L 562.12046,405.43888 C 562.03677,405.23365 561.949,405.04327 561.85381,404.85605 559.96877,401.16462 555.44885,399.6993 551.75705,401.58342 548.0662,403.46958 546.60198,407.98877 548.48593,411.67964 548.54752,411.80118 548.61229,411.91845 548.67649,412.02941 Z M 530.54578,418.2659 557.54282,479.05159 C 557.6612,479.32398 557.97424,479.46964 558.26611,479.37557 558.5643,479.27833 558.73204,478.96586 558.65633,478.66767 L 544.86037,413.87345 C 544.80878,413.65784 544.75312,413.45484 544.68743,413.255 543.40822,409.31419 539.17406,407.15452 535.23234,408.43429 531.2906,409.71498 529.13259,413.94823 530.41218,417.88979 530.45485,418.02023 530.49958,418.14604 530.54578,418.2659 Z M 511.65894,421.56748 528.75072,485.84456 C 528.82438,486.13385 529.10995,486.32701 529.41333,486.27802 529.72321,486.23015 529.93826,485.94884 529.91043,485.64045 L 526.4864,419.48407 C 526.47008,419.26326 526.44577,419.05395 526.41423,418.84613 525.76998,414.75076 521.92974,411.95407 517.83549,412.59795 513.74124,413.24071 510.94363,417.08095 511.58695,421.1767 511.60847,421.30974 511.63204,421.44279 511.65894,421.56748 Z M 492.5064,421.88793 499.41198,488.038 C 499.44037,488.33508 499.69236,488.56981 500,488.56981 500.31358,488.56981 500.56909,488.32673 500.58969,488.01796 L 507.4769,422.13027 C 507.49583,421.9089 507.50418,421.69904 507.50418,421.48862 507.50418,417.345 504.14417,413.98497 500,413.98497 495.85583,413.98497 492.49582,417.345 492.49582,421.48862 492.49582,421.62426 492.49953,421.75841 492.5064,421.88793 Z M 473.53475,419.24062 470.08846,485.66216 C 470.07009,485.96035 470.28311,486.23015 470.58667,486.27802 470.89691,486.32757 471.18675,486.12605 471.25467,485.82415 L 488.2865,421.80536 C 488.33903,421.58956 488.38058,421.38397 488.41324,421.1767 489.05637,417.08095 486.25933,413.24071 482.16452,412.59795 478.07083,411.95407 474.23002,414.75076 473.5869,418.84613 473.56519,418.98029 473.54849,419.11389 473.53475,419.24062 Z M 455.19901,413.63631 441.33903,478.68864 C 441.27372,478.9796 441.44108,479.27871 441.73389,479.37557 442.03226,479.47131 442.35087,479.31823 442.46516,479.03211 L 469.3633,418.49265 C 469.44903,418.28706 469.52215,418.09074 469.58783,417.88979 470.86705,413.94823 468.70942,409.71498 464.76768,408.43429 460.82595,407.15452 456.59178,409.31419 455.31276,413.255 455.27008,413.38489 455.23279,413.5131 455.19901,413.63631 Z M 437.97529,405.21417 414.04789,467.27331 C 413.93749,467.54997 414.05586,467.8734 414.32994,468.01331 414.60919,468.15638 414.94838,468.05543 415.10572,467.78878 L 451.19846,412.23927 C 451.31628,412.04982 451.4189,411.86686 451.51409,411.67964 453.39913,407.98877 451.93437,403.46958 448.24295,401.58342 444.55171,399.6993 440.03087,401.16462 438.1473,404.85605 438.08515,404.97647 438.02744,405.09801 437.97529,405.21417 Z M 422.2889,394.20335 388.94756,451.75315 C 388.79504,452.00922 388.86128,452.34749 389.11011,452.52896 389.36303,452.71247 389.71335,452.66682 389.91115,452.4295 L 434.25086,403.20962 C 434.39595,403.04244 434.52585,402.87729 434.64961,402.70695 437.08908,399.35528 436.34947,394.66204 432.99799,392.22293 429.64743,389.78455 424.95421,390.52362 422.51454,393.87566 422.43474,393.98551 422.35886,394.09499 422.2889,394.20335 Z M 408.51353,380.88813 366.62074,432.54786 C 366.43036,432.77721 366.44354,433.12067 366.66175,433.33796 366.88275,433.56099 367.23659,433.56934 367.46816,433.36635 L 418.92797,391.64696 C 419.09737,391.50297 419.25139,391.3614 419.40038,391.21202 422.33102,388.28082 422.33102,383.53006 419.40038,380.59978 416.46954,377.66913 411.71787,377.66913 408.78815,380.59978 408.69185,380.69497 408.59926,380.79387 408.51353,380.88813 Z M 396.97725,365.59248 347.55447,410.10224 C 347.33088,410.30041 347.29043,410.64127 347.47135,410.8901 347.65708,411.14301 348.0037,411.20777 348.2646,411.04207 L 405.59124,377.84058 C 405.78051,377.72479 405.95418,377.60956 406.12564,377.48598 409.476,375.04761 410.21563,370.3527 407.77669,367.00214 405.3376,363.65121 400.64436,362.91103 397.29326,365.35015 397.18395,365.42994 397.07707,365.51158 396.97725,365.59248 Z M 387.9697,348.67583 332.19317,384.90613 C 331.94118,385.06552 331.84711,385.3973 331.98701,385.67136 332.13007,385.94969 332.46407,386.06641 332.74761,385.94431 L 394.56077,362.12001 C 394.76656,362.03577 394.95694,361.94856 395.14416,361.85337 398.83595,359.96813 400.30091,355.44895 398.41567,351.75715 396.53118,348.06628 392.01089,346.60151 388.32058,348.48601 388.1996,348.5465 388.08121,348.61181 387.9697,348.67583 Z M 381.73377,330.54528 320.94876,357.54293 C 320.67582,357.6602 320.53015,357.97416 320.62534,358.26511 320.72258,358.56386 321.03338,358.73215 321.33268,358.657 L 386.12678,344.86045 C 386.34126,344.80887 386.54389,344.7532 386.74484,344.68789 390.6864,343.40663 392.84459,339.17357 391.56426,335.23295 390.28523,331.29009 386.05107,329.13302 382.10933,330.41168 381.98037,330.45435 381.8542,330.49907 381.73377,330.54528 Z M 378.43165,311.65989 314.15469,328.75059 C 313.86596,328.82426 313.67336,329.10983 313.72179,329.41339 313.77022,329.72364 314.05115,329.93833 314.35881,329.91049 L 380.51616,326.48627 C 380.73753,326.46994 380.94535,326.44582 381.1541,326.41427 385.24781,325.76984 388.04596,321.92978 387.40226,317.83608 386.75896,313.74125 382.91872,310.94309 378.8241,311.58585 378.68994,311.6083 378.55783,311.63261 378.43165,311.65989 Z M 378.11232,292.50637 311.96181,299.41142 C 311.66417,299.43925 311.43,299.69235 311.43,300.00056 311.43,300.31284 311.67419,300.56909 311.98241,300.58951 L 377.86942,307.47674 C 378.09023,307.49418 378.30009,307.5042 378.51107,307.5042 382.65468,307.5042 386.01527,304.14418 386.01527,300.00056 386.01527,295.85582 382.65468,292.49468 378.51107,292.49468 378.37543,292.49468 378.24071,292.49951 378.11232,292.50637 Z M 380.75849,273.53359 314.33765,270.08839 C 314.04002,270.06946 313.76966,270.28304 313.72179,270.58698 313.6728,270.89537 313.87431,271.18669 314.17566,271.2546 L 378.19451,288.28741 C 378.41013,288.339 378.61628,288.38056 378.8241,288.41303 382.91872,289.05746 386.75896,286.2593 387.40226,282.16503 388.04596,278.07077 385.24781,274.22997 381.1541,273.58573 381.01994,273.56457 380.8869,273.54787 380.75849,273.53359 Z M 386.36297,255.19836 321.31171,241.33873 C 321.02039,241.27193 320.71997,241.44022 320.62534,241.73377 320.52848,242.03252 320.68212,242.35074 320.96825,242.4643 L 381.50758,269.36306 C 381.71261,269.44823 381.90894,269.52134 382.10933,269.58721 386.05107,270.86679 390.28523,268.70879 391.56426,264.76761 392.84459,260.82531 390.6864,256.5917 386.74484,255.31192 386.61534,255.27055 386.48655,255.23251 386.36297,255.19836 Z M 394.78548,237.97462 332.72757,214.04604 C 332.45091,213.93619 332.12748,214.0555 331.98701,214.32864 331.8445,214.60845 331.94601,214.94653 332.21098,215.10481 L 387.76151,251.19836 C 387.94984,251.31619 388.13225,251.41824 388.32058,251.51343 392.01089,253.39793 396.53118,251.93372 398.41567,248.24285 400.30091,244.55142 398.83595,240.03019 395.14416,238.14607 395.02374,238.08391 394.90219,238.02769 394.78548,237.97462 Z M 405.79684,222.28931 348.24659,188.94568 C 347.98997,188.79371 347.65227,188.86106 347.47135,189.11027 347.28672,189.36225 347.33348,189.71313 347.57135,189.91038 L 396.79095,234.25072 C 396.95926,234.39471 397.12292,234.5246 397.29326,234.64985 400.64436,237.08934 405.3376,236.34879 407.77669,232.99823 410.21563,229.64674 409.476,224.95332 406.12564,222.51438 406.01506,222.43441 405.90464,222.35926 405.79684,222.28931 Z M 419.11203,208.51279 367.45239,166.62103 C 367.22249,166.43047 366.87847,166.44364 366.66175,166.66148 366.43926,166.88285 366.43091,167.23577 366.63503,167.46827 L 408.35303,218.9278 C 408.49665,219.09702 408.63822,219.25122 408.78815,219.39948 411.71787,222.33143 416.46954,222.33143 419.40038,219.39948 422.33102,216.47031 422.33102,211.71751 419.40038,208.78742 419.30501,208.69111 419.20666,208.59908 419.11203,208.51279 Z M 434.40764,196.97649 389.89705,147.55362 C 389.70017,147.33057 389.35838,147.28958 389.11011,147.47105 388.85609,147.65567 388.79337,148.00322 388.95814,148.26466 L 422.16013,205.59049 C 422.27369,205.77976 422.39096,205.95325 422.51454,206.12489 424.95421,209.47527 429.64743,210.21545 432.99799,207.77688 436.34947,205.33795 437.08908,200.6436 434.64961,197.29304 434.57019,197.18264 434.488,197.07632 434.40764,196.97649 Z M 451.32463,187.96947 415.09458,132.19229 C 414.93464,131.9403 414.60344,131.84678 414.32938,131.98557 414.05011,132.12974 413.93321,132.46374 414.0553,132.74708 L 437.87954,194.56056 C 437.96324,194.76523 438.051,194.95672 438.1473,195.14395 440.03087,198.83575 444.55171,200.30107 448.24295,198.41491 451.93437,196.53041 453.39913,192.01123 451.51409,188.32036 451.45304,188.19882 451.38828,188.08099 451.32463,187.96947 Z M 469.45423,181.73391 442.45719,120.94841 C 442.33787,120.67435 442.02596,120.52924 441.73389,120.62443 441.43571,120.72166 441.26796,121.03302 441.34367,121.33177 L 455.13964,186.12599 C 455.19122,186.3416 455.24688,186.54404 455.31276,186.74389 456.59178,190.68618 460.82595,192.84437 464.76768,191.56404 468.70942,190.2839 470.86705,186.0501 469.58783,182.10891 469.5446,181.97958 469.50044,181.85285 469.45423,181.73391 Z M 488.34161,178.43085 471.24948,114.15376 C 471.1758,113.86541 470.89005,113.67299 470.58667,113.72197 470.27679,113.76966 470.06174,114.05004 470.08957,114.3588 L 473.51322,180.51537 C 473.53012,180.73674 473.55368,180.94493 473.5869,181.15275 474.23002,185.24757 478.07083,188.04462 482.16452,187.40205 486.25933,186.75817 489.05637,182.91793 488.41324,178.82311 488.39209,178.68951 488.36742,178.55703 488.34161,178.43085 Z M 507.4936,178.11207 500.58802,111.96032 C 500.55963,111.6638 500.30728,111.43019 500,111.43019 499.68606,111.43019 499.43091,111.67271 499.41031,111.98203 L 492.52328,177.86955 C 492.50435,178.09054 492.49582,178.29985 492.49582,178.51027 492.49582,182.655 495.85583,186.01503 500,186.01503 504.14417,186.01503 507.50418,182.655 507.50418,178.51027 507.50418,178.37462 507.50048,178.24047 507.4936,178.11207 Z M 500,186.0681 C 562.92205,186.0681 613.93167,237.07728 613.93167,300.00056 613.93167,362.92161 562.92205,413.93246 500,413.93246 437.07795,413.93246 386.06889,362.92161 386.06889,300.00056 386.06889,237.07728 437.07795,186.0681 500,186.0681 Z M 500,199.72567 C 555.37945,199.72567 600.27358,244.62045 600.27358,300.00056 600.27358,355.37955 555.37945,400.27415 500,400.27415 444.62,400.27415 399.72643,355.37955 399.72643,300.00056 399.72643,244.62045 444.62,199.72567 500,199.72567 Z M 416.27286,330.09568 C 426.52475,308.65297 440.69404,289.70542 457.07739,273.7672 459.63839,275.44814 462.17456,277.19291 464.68362,278.9991 447.47921,295.44556 432.48456,315.79739 421.1728,340.7326 419.31614,337.31672 417.68085,333.76279 416.27286,330.09568 Z M 507.07334,278.33945 C 509.39926,280.28833 511.69105,282.30272 513.94701,284.38037 516.35328,282.407 518.7922,280.49912 521.26176,278.65935 519.01117,276.62066 516.72253,274.63968 514.40199,272.71362 511.92874,274.52816 509.48499,276.40393 507.07334,278.33945 Z M 492.50379,267.21971 C 495.03159,268.97488 497.53157,270.79368 500,272.67836 502.46843,270.79368 504.96841,268.97488 507.49621,267.21971 505.0263,265.33411 502.52632,263.51047 500,261.75049 497.47368,263.51047 494.9737,265.33411 492.50379,267.21971 Z M 493.17587,290.51129 C 495.48917,292.59841 497.76407,294.75325 500,296.97601 502.23537,294.75325 504.51194,292.59841 506.82415,290.51129 504.58821,288.37518 502.31163,286.29121 500,284.26885 497.68781,286.29121 495.41291,288.37518 493.17587,290.51129 Z M 478.73881,278.65935 C 481.20891,280.49912 483.64784,282.407 486.05317,284.38037 488.31008,282.30272 490.60278,280.28833 492.9276,278.34001 490.51503,276.40393 488.07071,274.52779 485.59821,272.71362 483.27859,274.63968 480.98996,276.62066 478.73881,278.65935 Z M 523.59453,257.09511 C 521.11127,255.20003 518.59812,253.36583 516.0588,251.59656 513.16899,253.24652 510.29919,254.977 507.45631,256.78579 510.05148,258.50625 512.62086,260.29351 515.16035,262.14665 517.94496,260.39037 520.75687,258.70665 523.59453,257.09511 Z M 536.86705,268.09961 C 534.638,266.09525 532.3746,264.14062 530.07929,262.24388 527.36835,263.88455 524.67688,265.59815 522.01343,267.37911 524.36181,269.25209 526.67771,271.1878 528.96114,273.18753 531.56893,271.42438 534.20658,269.7312 536.86705,268.09961 Z M 490.96573,246.90685 C 493.95074,244.99861 496.96415,243.17386 500,241.43985 503.0366,243.17386 506.04983,244.99861 509.03538,246.90685 505.99786,248.54734 502.98334,250.26781 500,252.06936 497.01666,250.26781 494.00232,248.54734 490.96573,246.90685 Z M 476.40658,257.09511 C 478.88985,255.20003 481.40189,253.36583 483.94139,251.59656 486.83158,253.24652 489.70081,254.977 492.54425,256.78579 489.94797,258.50625 487.37914,260.29351 484.84077,262.14665 482.05615,260.39037 479.24315,258.70665 476.40658,257.09511 Z M 463.13239,268.09961 C 465.362,266.09525 467.62484,264.14062 469.92072,262.24388 472.63166,263.88455 475.32313,265.59815 477.98713,267.37911 475.63932,269.25209 473.32229,271.1878 471.03961,273.18753 468.43071,271.42438 465.79397,269.7312 463.13239,268.09961 Z M 421.30009,254.99704 C 430.57483,258.71351 439.82305,263.27742 448.85269,268.62882 434.95244,281.87668 422.48782,297.66887 412.23056,316.35906 410.99347,310.42595 410.34235,304.27833 410.34235,297.97912 410.34235,282.40384 414.31397,267.75782 421.30009,254.99704 Z M 428.92061,243.33381 C 439.85256,246.86677 450.855,251.61382 461.61976,257.47382 459.30217,259.33048 457.01522,261.24819 454.76092,263.22917 444.93135,257.79892 434.83202,253.21015 424.64637,249.3816 425.98924,247.30338 427.41577,245.28677 428.92061,243.33381 Z M 438.48019,232.76109 C 450.83866,236.00217 463.4022,240.84441 475.7128,247.14622 473.11707,248.88394 470.54715,250.68549 468.00876,252.55644 456.6187,246.72371 444.92097,241.97741 433.19467,238.18875 434.87989,236.30722 436.64246,234.49584 438.48019,232.76109 Z M 452.42348,221.97628 C 452.68642,222.07314 452.96309,222.17037 453.25551,222.26927 453.58432,222.3524 453.912,222.43812 454.24081,222.52125 466.8264,225.79759 479.62725,230.73594 492.16238,237.18675 488.97808,238.92447 485.82215,240.7507 482.70059,242.66581 470.57146,236.75905 458.13671,232.0467 445.72201,228.38645 445.61513,228.35658 444.923,228.11665 444.14349,227.84574 446.78653,225.74025 449.55,223.77838 452.42348,221.97628 Z M 539.93464,217.68848 C 539.45184,217.84267 539.09983,217.95827 538.99462,217.99984 525.89876,221.81596 512.77245,226.79476 500,233.11513 487.47007,226.91537 474.59891,222.00467 461.75075,218.21712 461.50304,218.14457 461.25421,218.07258 461.00538,217.99984 460.65506,217.90947 460.33534,217.8089 460.03864,217.70221 472.07202,211.70025 485.64014,208.31815 500.00056,208.31815 514.34984,208.31815 527.91017,211.69283 539.93464,217.68848 Z M 555.94132,227.91458 C 555.60787,228.0146 555.29911,228.10237 555.03914,228.16508 542.37154,231.85373 529.67738,236.63751 517.29961,242.66581 514.17785,240.7507 511.02249,238.92447 507.83818,237.18675 520.69953,230.56727 533.84271,225.53985 546.74449,222.26927 547.0616,222.21824 547.38039,222.14253 547.69379,222.04883 550.55633,223.85205 553.31033,225.80909 555.94132,227.91458 Z M 566.80588,238.18875 C 555.07922,241.97741 543.38243,246.72371 531.99124,252.55644 529.45397,250.68549 526.8835,248.88394 524.28777,247.14622 536.59874,240.84441 549.16078,236.00217 561.52037,232.76109 563.35699,234.49584 565.12124,236.30722 566.80588,238.18875 Z M 575.35474,249.3816 C 565.16855,253.21015 555.0692,257.79836 545.2402,263.22917 542.98533,261.24819 540.69783,259.33048 538.38081,257.47382 549.14446,251.61382 560.14857,246.86677 571.07995,243.33381 572.58478,245.28677 574.01282,247.30338 575.35474,249.3816 Z M 587.76833,316.35906 C 577.51442,297.66925 565.04812,281.87668 551.1475,268.62882 560.17696,263.27742 569.42481,258.71351 578.69992,254.99704 585.68344,267.75931 589.6582,282.40384 589.6582,297.97912 589.6582,304.27833 589.00654,310.42706 587.76833,316.35906 Z M 578.8272,340.7326 C 567.51489,315.79739 552.52079,295.44556 535.31657,278.9991 537.82638,277.19291 540.36272,275.44814 542.92113,273.7672 559.30652,289.70542 573.47638,308.65242 583.72882,330.09568 582.32082,333.76112 580.68498,337.31672 578.8272,340.7326 Z M 564.86127,359.87832 C 553.93991,331.72615 538.54966,308.94225 520.4969,290.69684 522.86605,288.65036 525.2714,286.66585 527.70866,284.74072 546.39305,303.11435 562.12992,325.43009 572.36398,350.91232 570.05587,354.06193 567.55275,357.05956 564.86127,359.87832 Z M 547.93742,373.75466 546.74449,370.55255 C 536.84293,343.80854 522.95586,321.80342 506.58051,303.84692 508.8129,301.53788 511.09355,299.28524 513.41466,297.0918 532.16585,316.66356 547.57391,340.35593 556.84218,367.3161 554.01303,369.63795 551.03802,371.78853 547.93742,373.75466 Z M 461.18834,378.8242 462.33451,375.24114 C 470.59502,350.97856 483.82672,329.35401 500,310.98039 516.17347,329.35401 529.40554,350.97856 537.6655,375.24114 L 538.84006,378.81103 C 527.08909,384.46785 513.91548,387.6375 500.00056,387.6375 486.09734,387.6375 472.93151,384.47268 461.18834,378.8242 Z M 443.15875,367.31573 C 452.42776,340.35593 467.83415,316.66356 486.58534,297.0918 488.90663,299.28524 491.18728,301.53788 493.41949,303.84692 477.04414,321.80342 463.15762,343.80854 453.25551,370.55255 L 452.06741,373.75726 C 448.96365,371.7902 445.98865,369.63832 443.15875,367.31573 Z M 427.63566,350.91232 C 437.87119,325.43009 453.60751,303.11435 472.29246,284.74072 474.72879,286.66585 477.13452,288.65036 479.50403,290.69684 461.45145,308.94225 446.0612,331.72615 435.13874,359.87832 432.44838,357.05956 429.94413,354.06193 427.63566,350.91232"
     style="fill:#ffed00;fill-opacity:1;fill-rule:evenodd;stroke:none;stroke-width:1.85554"
     id="path204" />
</svg>
